<?xml version="1.0" standalone="no"?>
<!DOCTYPE svg PUBLIC "-//W3C//DTD SVG 20010904//EN"
 "http://www.w3.org/TR/2001/REC-SVG-20010904/DTD/svg10.dtd">
<svg version="1.0" xmlns="http://www.w3.org/2000/svg"
 width="700.000000pt" height="700.000000pt" viewBox="0 0 700.000000 700.000000"
 preserveAspectRatio="xMidYMid meet">
<metadata>
Created by potrace 1.14, written by Peter Selinger 2001-2017
</metadata>
<g transform="translate(0.000000,700.000000) scale(0.100000,-0.100000)"
fill="#000000" stroke="none">
<path d="M1993 5824 c-2 -6 12 -58 31 -115 19 -57 59 -180 89 -274 31 -93 110
-339 177 -545 67 -206 145 -445 172 -530 28 -85 88 -270 133 -410 71 -218 196
-602 392 -1205 25 -77 58 -178 73 -225 50 -152 166 -508 275 -845 59 -181 119
-367 133 -412 15 -46 29 -83 32 -83 3 0 20 46 38 103 56 175 242 748 272 837
16 47 78 240 140 430 187 576 285 880 370 1140 50 151 122 374 265 815 64 198
138 428 165 510 27 83 86 263 131 400 44 138 91 283 105 323 13 40 24 78 24
85 0 9 -43 12 -180 12 l-181 0 -106 -325 c-58 -179 -125 -386 -149 -460 l-44
-135 -846 1 c-763 0 -847 2 -855 16 -10 18 -34 89 -184 553 -59 182 -111 334
-116 339 -13 14 -351 14 -356 0z m2237 -1268 c0 -6 -50 -164 -111 -351 -61
-187 -142 -437 -180 -555 -38 -118 -94 -289 -124 -380 -29 -91 -108 -334 -175
-540 -66 -206 -126 -386 -131 -400 -11 -25 -11 -25 -24 15 -40 122 -263 811
-302 930 -25 77 -58 178 -73 225 -26 78 -182 559 -295 905 -25 77 -45 145 -45
151 0 7 226 10 730 10 503 0 730 -3 730 -10z"/>
</g>
</svg>
